<svg id="Layer_1" data-name="Layer 1" xmlns="http://www.w3.org/2000/svg" viewBox="0 0 164 25"><defs><style>.cls-1{fill:#222}</style></defs><title>_Model_Logos_Clean</title><path d="M112.15 20.19c7.59 0 24.18-.15 25.82-.26 5.12-.34 7.92-1.62 9.3-4.84.29-.68.07-1-1.19-1-2.31-.09-12 0-15 .06-4.57.16-5.61.34-7.25 1.59l-9.38.05S124.53 1.26 125.15.35c8-.24 29.63-.38 38.18-.35-.3.41-3.28 4.29-3.67 4.8-3.51-.12-23 .08-27.78.26-.31.44-3 4.34-3.25 4.67 3.54-.61 14.83-.6 18.53-.52 6.66.14 8.32.66 9.54 2.2s1 3.72-.49 6.09c-3.19 5.07-7.25 6.89-16.09 7.2-4.87.17-25.93.33-31.35.3zM110.2.97l-14.14.12-16.09 7.06-6.34-6.91-9.95-.01 8.79 10.2-22.44 9.87L60.98 1.17h-9.47L27.15 17.61 23.84 1.13h-8.28L0 24.76h9.68l8.91-13.99 2.91 13.99h5.57l18.91-12.63-7.07 12.64 18.76-.16 18.92-8.51 7.44 8.67 11.01.03-11.08-12.07L110.2.97z"/><path class="cls-1" d="M98.98 10.96l13.55-.07-3.09 4.86-13.84.06 3.38-4.85z"/></svg>